<svg width="1456" height="410" viewBox="0 0 1456 410" fill="none" xmlns="http://www.w3.org/2000/svg">
<path d="M42.0607 271.518C25.0201 238.781 15.3697 201.611 15.3697 162.225C15.3697 145.267 17.1721 128.728 20.5675 112.769C7.39008 140.011 0 170.57 0 202.853C0 236.511 8.03312 268.283 22.2726 296.377C26.467 286.356 33.3602 277.768 42.0607 271.518" fill="url(#paint0_radial)"/>
<path d="M91.5554 374.764C124.565 397.003 164.331 409.986 207.127 409.986C230.827 409.986 253.597 405.991 274.807 398.659C267.568 399.327 260.241 399.687 252.832 399.687C203.103 399.687 156.907 384.308 118.719 358.08C111.49 365.937 102.136 371.807 91.5554 374.764" fill="url(#paint1_radial)"/>
<path d="M291.439 258.345C313.775 258.345 331.882 276.452 331.882 298.793C331.882 300.62 331.721 302.413 331.483 304.176C343.579 306.139 355.981 307.172 368.618 307.172C374.639 307.172 380.602 306.924 386.511 306.466C425.269 256.767 409.373 194.859 395.738 180.615C376.149 160.15 368.774 182.934 362.909 247.418C362.612 250.662 357.872 250.672 357.579 247.423C348.996 153.052 337.182 147.971 288.603 237.052C287.049 239.896 282.733 238.075 283.688 234.981C313.395 138.812 302.258 133.444 231.383 192.974C228.874 195.078 225.498 191.707 227.607 189.199C287.132 118.318 281.769 107.186 185.6 136.893C182.507 137.848 180.685 133.527 183.525 131.978C272.61 83.3989 267.524 71.5806 173.153 63.0018C169.904 62.7047 169.914 57.9647 173.168 57.6675C241.291 51.4758 262.872 43.5888 236.079 21.3991C212.32 1.723 180.1 -4.82922 150.428 3.59851C149.921 3.73979 149.419 3.88594 148.913 4.03208C141.474 26.6895 137.43 50.8718 137.43 75.9893C137.43 162.878 185.619 238.713 256.671 278.201C263.72 266.329 276.629 258.345 291.439 258.345" fill="url(#paint2_radial)"/>
<path d="M51.3896 145.974C51.3896 133.878 59.1062 123.608 69.8722 119.745C68.7274 109.325 68.1185 98.7491 68.1185 88.0269C68.1185 73.9774 69.1561 60.1715 71.1095 46.653C56.4511 59.4261 43.6098 74.2307 33.0192 90.6234C25.6534 113.178 21.6442 137.239 21.6442 162.225C21.6442 200.359 30.9341 236.365 47.356 268.107C55.7789 263.348 65.4927 260.61 75.8641 260.61C107.997 260.61 134.045 286.658 134.045 318.791C134.045 331.69 129.841 343.597 122.733 353.228C159.82 378.569 204.623 393.413 252.832 393.413C268.348 393.413 283.513 391.868 298.176 388.936C306.828 384.697 315.143 379.88 323.06 374.521C208.696 361.227 114.525 280.788 81.1352 173.77C80.5214 173.814 79.9075 173.868 79.2791 173.868C63.8753 173.868 51.3896 161.377 51.3896 145.974" fill="url(#paint3_radial)"/>
<path d="M291.439 339.237C269.103 339.237 250.995 321.129 250.995 298.793C250.995 293.503 252.038 288.465 253.884 283.833C180.768 243.311 131.156 165.338 131.156 75.9894C131.156 51.7487 134.824 28.3556 141.605 6.31687C118.461 14.0285 97.1382 25.7104 78.4364 40.5587C75.8009 56.0015 74.3979 71.8534 74.3979 88.0269C74.3979 98.2522 74.963 108.341 76.025 118.289C77.0968 118.162 78.1782 118.079 79.2792 118.079C94.6878 118.079 107.173 130.57 107.173 145.974C107.173 158.562 98.8286 169.196 87.3707 172.665C120.931 279.151 216.057 358.572 330.815 369.011C351.319 353.72 368.891 334.721 382.551 313.008C377.937 313.276 373.3 313.452 368.618 313.452C355.538 313.452 342.707 312.37 330.192 310.324C325.223 327.038 309.765 339.237 291.439 339.237" fill="url(#paint4_radial)"/>
<path d="M90.6834 163.18C83.4005 161.265 77.1259 156.316 73.5843 149.447C78.0808 148.823 81.5541 145.004 81.5541 140.337C81.5541 135.237 77.4182 131.101 72.3178 131.101C72.0791 131.101 71.8501 131.154 71.6162 131.174C72.0839 129.123 72.6636 127.291 73.18 125.903C73.6379 124.67 72.4395 123.428 71.207 123.881C58.9162 128.412 52.364 142.52 57.9662 155.317C61.7709 164.018 70.8076 169.581 80.2924 169.138C84.3309 168.948 87.965 167.788 91.0828 165.957C92.2568 165.265 91.9987 163.531 90.6834 163.18" fill="#231F20"/>
<path d="M94.9849 149.574C94.9849 151.922 93.0801 153.826 90.7321 153.826C88.384 153.826 86.4792 151.922 86.4792 149.574C86.4792 147.221 88.384 145.316 90.7321 145.316C93.0801 145.316 94.9849 147.221 94.9849 149.574Z" fill="#231F20"/>
<path d="M114.3 342.856C114.281 342.856 114.262 342.856 114.242 342.856C111.494 342.856 108.815 342.598 106.18 342.213C106.594 340.893 106.876 339.519 106.876 338.062C106.876 330.307 100.587 324.018 92.8317 324.018C87.5802 324.018 83.0497 326.941 80.6432 331.213C69.2195 322.006 61.956 308.054 61.956 291.929C61.956 284.758 63.4175 277.933 66.0335 271.717C66.7496 270.007 65.2199 268.205 63.4321 268.677C45.9336 273.315 32.1618 287.062 27.4267 304.532C41.1839 329.644 60.3241 351.367 83.2787 368.203C96.9774 366.366 108.942 359.088 116.931 348.619C118.646 346.373 117.126 342.895 114.3 342.856" fill="#231F20"/>
<path d="M84.3845 300.074C90.2985 300.074 95.0921 295.281 95.0921 289.367C95.0921 283.453 90.2985 278.659 84.3845 278.659C78.4704 278.659 73.6769 283.453 73.6769 289.367C73.6769 295.281 78.4704 300.074 84.3845 300.074Z" fill="#231F20"/>
<path d="M114.013 314.163C117.102 314.163 119.601 311.664 119.601 308.575C119.601 305.487 117.102 302.988 114.013 302.988C110.929 302.988 108.425 305.487 108.425 308.575C108.425 311.664 110.929 314.163 114.013 314.163Z" fill="#231F20"/>
<path d="M315.83 319.862C310.569 320.847 304.938 320.773 299.111 319.307C292.111 317.544 285.836 313.827 280.897 308.79C282.475 307.533 283.513 305.618 283.513 303.441C283.513 299.65 280.439 296.581 276.654 296.581C275.387 296.581 274.213 296.952 273.195 297.551C272.26 295.49 271.485 293.342 270.92 291.116C269.478 285.382 269.39 279.838 270.326 274.645C270.657 272.794 268.372 271.6 266.998 272.886C259.092 280.281 254.556 291.223 255.955 303.187C257.835 319.307 270.925 332.392 287.045 334.277C299.097 335.685 310.121 331.067 317.516 323.048C318.734 321.723 317.599 319.531 315.83 319.862" fill="#231F20"/>
<path d="M294.318 287.852C299.701 287.852 304.061 283.487 304.061 278.104C304.061 272.721 299.701 268.361 294.318 268.361C288.935 268.361 284.57 272.721 284.57 278.104C284.57 283.487 288.935 287.852 294.318 287.852Z" fill="#231F20"/>
<path d="M312.313 310.962C315.674 310.962 318.402 308.239 318.402 304.878C318.402 301.516 315.674 298.793 312.313 298.793C308.952 298.793 306.229 301.516 306.229 304.878C306.229 308.239 308.952 310.962 312.313 310.962Z" fill="#231F20"/>
<path d="M498.97 200.98H479.08V189.55H532.9V200.98H513.01V253H498.97V200.98ZM597.076 189.55V253H583.306V226.36H554.056V253H540.286V189.55H554.056V215.2H583.306V189.55H597.076ZM609.72 189.55H623.76V253H609.72V189.55ZM691.431 253H676.131L665.151 232.75C664.251 231.19 663.171 230.08 661.911 229.42C660.651 228.7 659.061 228.34 657.141 228.34H650.211V253H636.351V189.55H665.511C672.951 189.55 678.561 191.2 682.341 194.5C686.181 197.74 688.101 202.45 688.101 208.63C688.101 213.43 686.751 217.45 684.051 220.69C681.411 223.93 677.661 226.06 672.801 227.08C676.101 227.92 678.891 230.29 681.171 234.19L691.431 253ZM663.441 217.72C667.461 217.72 670.371 217.03 672.171 215.65C673.971 214.21 674.871 211.99 674.871 208.99C674.871 205.93 673.971 203.71 672.171 202.33C670.371 200.95 667.461 200.26 663.441 200.26H650.031V217.72H663.441ZM699.456 189.55H724.116C731.016 189.55 736.956 190.81 741.936 193.33C746.916 195.85 750.726 199.48 753.366 204.22C756.006 208.96 757.326 214.63 757.326 221.23C757.326 227.83 756.006 233.53 753.366 238.33C750.786 243.07 747.006 246.7 742.026 249.22C737.046 251.74 731.076 253 724.116 253H699.456V189.55ZM723.126 241.66C736.626 241.66 743.376 234.85 743.376 221.23C743.376 207.67 736.626 200.89 723.126 200.89H713.496V241.66H723.126ZM823.179 253H807.879L796.899 232.75C795.999 231.19 794.919 230.08 793.659 229.42C792.399 228.7 790.809 228.34 788.889 228.34H781.959V253H768.099V189.55H797.259C804.699 189.55 810.309 191.2 814.089 194.5C817.929 197.74 819.849 202.45 819.849 208.63C819.849 213.43 818.499 217.45 815.799 220.69C813.159 223.93 809.409 226.06 804.549 227.08C807.849 227.92 810.639 230.29 812.919 234.19L823.179 253ZM795.189 217.72C799.209 217.72 802.119 217.03 803.919 215.65C805.719 214.21 806.619 211.99 806.619 208.99C806.619 205.93 805.719 203.71 803.919 202.33C802.119 200.95 799.209 200.26 795.189 200.26H781.779V217.72H795.189ZM859.925 253.81C853.625 253.81 848.135 252.49 843.455 249.85C838.835 247.15 835.265 243.37 832.745 238.51C830.225 233.59 828.965 227.83 828.965 221.23C828.965 214.63 830.225 208.9 832.745 204.04C835.265 199.12 838.835 195.34 843.455 192.7C848.135 190.06 853.625 188.74 859.925 188.74C866.225 188.74 871.685 190.06 876.305 192.7C880.985 195.34 884.585 199.12 887.105 204.04C889.625 208.9 890.885 214.63 890.885 221.23C890.885 227.83 889.625 233.59 887.105 238.51C884.585 243.37 880.985 247.15 876.305 249.85C871.685 252.49 866.225 253.81 859.925 253.81ZM859.925 242.92C865.205 242.92 869.345 241.06 872.345 237.34C875.405 233.62 876.935 228.25 876.935 221.23C876.935 214.21 875.435 208.87 872.435 205.21C869.435 201.49 865.265 199.63 859.925 199.63C854.585 199.63 850.415 201.49 847.415 205.21C844.475 208.87 843.005 214.21 843.005 221.23C843.005 228.25 844.505 233.62 847.505 237.34C850.505 241.06 854.645 242.92 859.925 242.92ZM931.395 253.81C924.975 253.81 919.365 252.46 914.565 249.76C909.825 247.06 906.165 243.25 903.585 238.33C901.065 233.41 899.805 227.71 899.805 221.23C899.805 214.75 901.065 209.05 903.585 204.13C906.165 199.21 909.825 195.43 914.565 192.79C919.365 190.09 924.975 188.74 931.395 188.74C935.595 188.74 939.615 189.4 943.455 190.72C947.295 191.98 950.445 193.75 952.905 196.03L948.405 206.02C945.645 203.92 942.885 202.39 940.125 201.43C937.425 200.47 934.605 199.99 931.665 199.99C926.025 199.99 921.675 201.79 918.615 205.39C915.615 208.99 914.115 214.27 914.115 221.23C914.115 228.19 915.615 233.5 918.615 237.16C921.675 240.76 926.025 242.56 931.665 242.56C934.605 242.56 937.425 242.08 940.125 241.12C942.885 240.16 945.645 238.63 948.405 236.53L952.905 246.52C950.445 248.8 947.295 250.6 943.455 251.92C939.615 253.18 935.595 253.81 931.395 253.81ZM1004.18 253L976.641 223.75V253H962.601V189.55H976.641V217.45L1003.28 189.55H1019.84L990.321 219.88L1021.01 253H1004.18ZM1070.96 253.81C1066.16 253.81 1061.54 253.18 1057.1 251.92C1052.66 250.6 1048.97 248.8 1046.03 246.52L1050.53 236.53C1056.65 240.79 1063.52 242.92 1071.14 242.92C1075.1 242.92 1078.13 242.29 1080.23 241.03C1082.39 239.71 1083.47 237.91 1083.47 235.63C1083.47 233.59 1082.48 232 1080.5 230.86C1078.58 229.72 1075.13 228.61 1070.15 227.53C1064.57 226.39 1060.1 225.01 1056.74 223.39C1053.44 221.77 1051.01 219.79 1049.45 217.45C1047.95 215.05 1047.2 212.11 1047.2 208.63C1047.2 204.79 1048.25 201.37 1050.35 198.37C1052.51 195.37 1055.51 193.03 1059.35 191.35C1063.19 189.61 1067.63 188.74 1072.67 188.74C1077.17 188.74 1081.49 189.4 1085.63 190.72C1089.83 192.04 1093.16 193.81 1095.62 196.03L1091.12 206.02C1085.3 201.76 1079.18 199.63 1072.76 199.63C1069.1 199.63 1066.22 200.35 1064.12 201.79C1062.02 203.17 1060.97 205.09 1060.97 207.55C1060.97 208.99 1061.36 210.19 1062.14 211.15C1062.98 212.05 1064.33 212.86 1066.19 213.58C1068.11 214.3 1070.81 215.05 1074.29 215.83C1082.45 217.63 1088.3 219.94 1091.84 222.76C1095.44 225.58 1097.24 229.48 1097.24 234.46C1097.24 240.46 1094.93 245.2 1090.31 248.68C1085.69 252.1 1079.24 253.81 1070.96 253.81ZM1134.94 224.29V253H1120.9V224.29L1094.71 189.55H1110.64L1127.83 213.04L1145.29 189.55H1161.22L1134.94 224.29ZM1183.29 253.81C1178.49 253.81 1173.87 253.18 1169.43 251.92C1164.99 250.6 1161.3 248.8 1158.36 246.52L1162.86 236.53C1168.98 240.79 1175.85 242.92 1183.47 242.92C1187.43 242.92 1190.46 242.29 1192.56 241.03C1194.72 239.71 1195.8 237.91 1195.8 235.63C1195.8 233.59 1194.81 232 1192.83 230.86C1190.91 229.72 1187.46 228.61 1182.48 227.53C1176.9 226.39 1172.43 225.01 1169.07 223.39C1165.77 221.77 1163.34 219.79 1161.78 217.45C1160.28 215.05 1159.53 212.11 1159.53 208.63C1159.53 204.79 1160.58 201.37 1162.68 198.37C1164.84 195.37 1167.84 193.03 1171.68 191.35C1175.52 189.61 1179.96 188.74 1185 188.74C1189.5 188.74 1193.82 189.4 1197.96 190.72C1202.16 192.04 1205.49 193.81 1207.95 196.03L1203.45 206.02C1197.63 201.76 1191.51 199.63 1185.09 199.63C1181.43 199.63 1178.55 200.35 1176.45 201.79C1174.35 203.17 1173.3 205.09 1173.3 207.55C1173.3 208.99 1173.69 210.19 1174.47 211.15C1175.31 212.05 1176.66 212.86 1178.52 213.58C1180.44 214.3 1183.14 215.05 1186.62 215.83C1194.78 217.63 1200.63 219.94 1204.17 222.76C1207.77 225.58 1209.57 229.48 1209.57 234.46C1209.57 240.46 1207.26 245.2 1202.64 248.68C1198.02 252.1 1191.57 253.81 1183.29 253.81ZM1233.03 200.98H1213.14V189.55H1266.96V200.98H1247.07V253H1233.03V200.98ZM1274.35 189.55H1318.09V200.44H1288.03V215.29H1316.29V226.18H1288.03V242.11H1318.09V253H1274.35V189.55ZM1390.7 189.55V253H1378.37V215.38L1363.79 242.56H1354.79L1340.21 215.74V253H1327.88V189.55H1338.95L1359.38 228.34L1379.81 189.55H1390.7ZM1425.69 253.81C1420.89 253.81 1416.27 253.18 1411.83 251.92C1407.39 250.6 1403.7 248.8 1400.76 246.52L1405.26 236.53C1411.38 240.79 1418.25 242.92 1425.87 242.92C1429.83 242.92 1432.86 242.29 1434.96 241.03C1437.12 239.71 1438.2 237.91 1438.2 235.63C1438.2 233.59 1437.21 232 1435.23 230.86C1433.31 229.72 1429.86 228.61 1424.88 227.53C1419.3 226.39 1414.83 225.01 1411.47 223.39C1408.17 221.77 1405.74 219.79 1404.18 217.45C1402.68 215.05 1401.93 212.11 1401.93 208.63C1401.93 204.79 1402.98 201.37 1405.08 198.37C1407.24 195.37 1410.24 193.03 1414.08 191.35C1417.92 189.61 1422.36 188.74 1427.4 188.74C1431.9 188.74 1436.22 189.4 1440.36 190.72C1444.56 192.04 1447.89 193.81 1450.35 196.03L1445.85 206.02C1440.03 201.76 1433.91 199.63 1427.49 199.63C1423.83 199.63 1420.95 200.35 1418.85 201.79C1416.75 203.17 1415.7 205.09 1415.7 207.55C1415.7 208.99 1416.09 210.19 1416.87 211.15C1417.71 212.05 1419.06 212.86 1420.92 213.58C1422.84 214.3 1425.54 215.05 1429.02 215.83C1437.18 217.63 1443.03 219.94 1446.57 222.76C1450.17 225.58 1451.97 229.48 1451.97 234.46C1451.97 240.46 1449.66 245.2 1445.04 248.68C1440.42 252.1 1433.97 253.81 1425.69 253.81Z" fill="black"/>
<defs>
<radialGradient id="paint0_radial" cx="0" cy="0" r="1" gradientUnits="userSpaceOnUse" gradientTransform="translate(326.777 90.4042) rotate(139.302) scale(369.785)">
<stop stop-color="white"/>
<stop offset="0.19403" stop-color="white"/>
<stop offset="0.378078" stop-color="#00ADEF"/>
<stop offset="0.378109" stop-color="#00ADEF"/>
<stop offset="0.811137" stop-color="#100F0D"/>
<stop offset="0.915423" stop-color="#100F0D"/>
<stop offset="1" stop-color="#100F0D"/>
</radialGradient>
<radialGradient id="paint1_radial" cx="0" cy="0" r="1" gradientUnits="userSpaceOnUse" gradientTransform="translate(326.777 90.404) rotate(139.302) scale(369.785)">
<stop stop-color="white"/>
<stop offset="0.19403" stop-color="white"/>
<stop offset="0.378078" stop-color="#00ADEF"/>
<stop offset="0.378109" stop-color="#00ADEF"/>
<stop offset="0.811137" stop-color="#100F0D"/>
<stop offset="0.915423" stop-color="#100F0D"/>
<stop offset="1" stop-color="#100F0D"/>
</radialGradient>
<radialGradient id="paint2_radial" cx="0" cy="0" r="1" gradientUnits="userSpaceOnUse" gradientTransform="translate(324.477 93.1955) rotate(139.302) scale(365.058)">
<stop stop-color="white"/>
<stop offset="0.19403" stop-color="white"/>
<stop offset="0.378078" stop-color="#00ADEF"/>
<stop offset="0.378109" stop-color="#00ADEF"/>
<stop offset="0.811137" stop-color="#100F0D"/>
<stop offset="0.915423" stop-color="#100F0D"/>
<stop offset="1" stop-color="#100F0D"/>
</radialGradient>
<radialGradient id="paint3_radial" cx="0" cy="0" r="1" gradientUnits="userSpaceOnUse" gradientTransform="translate(326.777 90.4041) rotate(139.302) scale(369.785)">
<stop stop-color="white"/>
<stop offset="0.19403" stop-color="white"/>
<stop offset="0.378078" stop-color="#00ADEF"/>
<stop offset="0.378109" stop-color="#00ADEF"/>
<stop offset="0.811137" stop-color="#100F0D"/>
<stop offset="0.915423" stop-color="#100F0D"/>
<stop offset="1" stop-color="#100F0D"/>
</radialGradient>
<radialGradient id="paint4_radial" cx="0" cy="0" r="1" gradientUnits="userSpaceOnUse" gradientTransform="translate(326.777 90.4042) rotate(139.302) scale(369.785)">
<stop stop-color="white"/>
<stop offset="0.19403" stop-color="white"/>
<stop offset="0.378078" stop-color="#00ADEF"/>
<stop offset="0.378109" stop-color="#00ADEF"/>
<stop offset="0.811137" stop-color="#100F0D"/>
<stop offset="0.915423" stop-color="#100F0D"/>
<stop offset="1" stop-color="#100F0D"/>
</radialGradient>
</defs>
</svg>
